<?xml version="1.0" encoding="UTF-8" standalone="no"?>
<svg width="1200" height="630" viewBox="0 0 1200 630" xmlns="http://www.w3.org/2000/svg">
  <rect width="1200" height="630" fill="#0f172a"/>
  <text x="600" y="280" font-family="Orbitron, sans-serif" font-size="72" font-weight="700" fill="#FF7A00" text-anchor="middle">SmileHK</text>
  <text x="600" y="380" font-family="Noto Sans TC, sans-serif" font-size="36" fill="#FDBA74" text-anchor="middle">香港及大灣區牙醫資訊平台</text>
  
  <g transform="translate(500, 150) scale(3)">
    <path d="M8 16C8 11.5817 11.5817 8 16 8C20.4183 8 24 11.5817 24 16C24 20.4183 20.4183 24 16 24H8V16Z" fill="#FF7A00"/>
    <path d="M10 14C10 12.8954 10.8954 12 12 12C13.1046 12 14 12.8954 14 14C14 15.1046 13.1046 16 12 16C10.8954 16 10 15.1046 10 14Z" fill="#FDBA74"/>
    <path d="M18 14C18 12.8954 18.8954 12 20 12C21.1046 12 22 12.8954 22 14C22 15.1046 21.1046 16 20 16C18.8954 16 18 15.1046 18 14Z" fill="#FDBA74"/>
    <path d="M11 19C11 18.4477 11.4477 18 12 18H20C20.5523 18 21 18.4477 21 19C21 19.5523 20.5523 20 20 20H12C11.4477 20 11 19.5523 11 19Z" fill="#FDBA74"/>
  </g>
</svg>
