<?xml version="1.0" encoding="UTF-8"?>
<svg width="120" height="120" viewBox="0 0 120 120" fill="none" xmlns="http://www.w3.org/2000/svg">
  <circle cx="60" cy="60" r="60" fill="#000"/>
  <path d="M40 35C40 30 45 25 50 25C55 25 60 30 60 35V85C60 90 55 95 50 95C45 95 40 90 40 85V35Z" fill="#FFAA40"/>
  <path d="M80 35C80 30 75 25 70 25C65 25 60 30 60 35V85C60 90 65 95 70 95C75 95 80 90 80 85V35Z" fill="#FFAA40"/>
  <path d="M32 50H88" stroke="#FFF" stroke-width="4"/>
  <path d="M32 70H88" stroke="#FFF" stroke-width="4"/>
  <text x="60" y="62" font-family="Arial" font-size="16" fill="#FFF" text-anchor="middle">GoGo</text>
</svg>